<?xml version="1.0" standalone="no"?> <!DOCTYPE svg PUBLIC "-//W3C//DTD SVG 1.0//EN" "http://www.w3.org/TR/2001/REC-SVG-20010904/DTD/svg10.dtd" > <svg xmlns="http://www.w3.org/2000/svg" width="100%" height="100%">
<defs >
<font id="neutradisplaymediumalt" horiz-adv-x="658" ><font-face
    font-family="Neutra Display Thin Alt"
    units-per-em="2048"
    panose-1="2 0 0 0 0 0 0 0 0 0"
    ascent="1598"
    descent="-451"
    alphabetic="0" />
<missing-glyph horiz-adv-x="1024" />
<glyph unicode=" " glyph-name="space" horiz-adv-x="372" />
<glyph unicode="!" glyph-name="exclam" horiz-adv-x="438" d="M164 373L150 1393H291L276 373H164ZM219 -12Q181 -12 152 16T123 84T152 152T219 180Q258 180 286 153T315 84T287 16T219 -12Z" />
<glyph unicode="&quot;" glyph-name="quotedbl" horiz-adv-x="536" d="M338 1042L319 1393H461L444 1042H338ZM92 1042L76 1393H215L199 1042H92Z" />
<glyph unicode="#" glyph-name="numbersign" horiz-adv-x="976" d="M299 1061H131V1167H326L383 1393H496L438 1167H657L715 1393H829L772 1167H932V1061H745L674 778H844V674H647L594 461H479L532 674H315L262 461H147L201 674H45V778H227L299 1061ZM631 1061H412L342
778H559L631 1061Z" />
<glyph unicode="$" glyph-name="dollar" horiz-adv-x="1058" d="M469 -14Q320 -3 215 72T49 264L158 324Q215 225 286 169T469 100V692L455 698Q288 776 207 864T125 1092Q125 1226 224 1313T469 1409V1583H569V1405Q762 1377 866 1202L764 1137Q727 1198 682
1236T569 1288V784L600 770Q692 727 755 687T865 597T934 487T956 350Q956 189 853 93T569 -14V-238H469V-14ZM469 1294Q370 1288 312 1235T254 1094Q254 1006 304 949T469 834V1294ZM569 100Q692 111 758 176T825 346Q825 447 763 514T569 645V100Z" />
<glyph unicode="%" glyph-name="percent" horiz-adv-x="1579" d="M543 721T403 721T160 820T57 1065Q57 1212 160 1310T403 1409Q544 1409 647 1311T750 1065Q750 919 647 820ZM285 0L1159 1393H1294L418 0H285ZM1174 -16Q1033 -16 930 82T827 328Q827 474 930
573T1174 672T1418 573T1522 328Q1522 181 1418 83T1174 -16ZM403 831Q497 831 562 897T627 1065Q627 1167 562 1232T403 1298Q310 1298 245 1233T180 1065Q180 964 245 898T403 831ZM1080 94T1174 94T1333 159T1399 328Q1399 430 1334 495T1174 561T1015 496T950
328Q950 225 1015 160Z" />
<glyph unicode="&amp;" glyph-name="ampersand" horiz-adv-x="1308" d="M621 803L942 406Q999 554 999 758H1122Q1122 494 1028 301L1272 0H1108L956 186Q878 88 768 36T528 -16Q328 -16 202 90T76 371Q76 438 96 496T145 597T226 684T322 756T436 825L412 856Q301
992 301 1128Q301 1248 382 1328T594 1409Q721 1409 796 1331T872 1133Q872 1037 807 958T621 803ZM549 889Q647 947 696 1002T745 1133Q745 1203 704 1248T594 1294Q520 1294 475 1248T430 1128Q430 1036 512 934L549 889ZM879 283L508 737Q434 695 387 663T297
586T233 489T213 371Q213 248 301 174T528 100Q753 100 879 283Z" />
<glyph unicode="&apos;" glyph-name="quotesingle" horiz-adv-x="290" d="M92 1042L76 1393H215L199 1042H92Z" />
<glyph unicode="(" glyph-name="parenleft" horiz-adv-x="565" d="M432 -279Q86 85 86 596Q86 1108 432 1470L514 1403Q221 1066 221 596T514 -211L432 -279Z" />
<glyph unicode=")" glyph-name="parenright" horiz-adv-x="565" d="M131 -279L51 -211Q344 130 344 596T51 1403L131 1470Q479 1110 479 596Q479 83 131 -279Z" />
<glyph unicode="*" glyph-name="asterisk" horiz-adv-x="733" d="M313 881L330 1073L176 965L123 1057L297 1137L123 1214L176 1309L330 1200L313 1393H422L406 1200L557 1309L610 1214L436 1137L610 1057L557 965L406 1073L422 881H313Z" />
<glyph unicode="+" glyph-name="plus" horiz-adv-x="679" d="M399 600V377H281V600H76V715H281V938H399V715H604V600H399Z" />
<glyph unicode="," glyph-name="comma" horiz-adv-x="358" d="M80 -168L143 -4Q119 6 103 29T86 84Q86 125 114 152T182 180Q220 180 249 152T279 84Q279 55 250 6L152 -168H80Z" />
<glyph unicode="-" glyph-name="hyphen" horiz-adv-x="479" d="M74 332V444H406V332H74Z" />
<glyph unicode="." glyph-name="period" horiz-adv-x="352" d="M176 -12Q137 -12 109 15T80 84T108 152T176 180Q214 180 243 152T272 84T243 16T176 -12Z" />
<glyph unicode="/" glyph-name="slash" horiz-adv-x="833" d="M12 -262L625 1454H756L143 -262H12Z" />
<glyph unicode="0" glyph-name="zero" horiz-adv-x="1593" d="M997 -16T801 -16T442 75T182 331T86 696Q86 898 182 1062T441 1317T801 1409T1160 1318T1420 1062T1516 696Q1516 495 1420 331T1161 76ZM553 104T801 104T1212 273T1376 696T1213 1119T801 1288T389
1119T225 696T389 273Z" />
<glyph unicode="1" glyph-name="one" horiz-adv-x="598" d="M270 0V1274H68V1393H406V0H270Z" />
<glyph unicode="2" glyph-name="two" horiz-adv-x="1073" d="M59 0V10L637 625Q737 731 785 822T834 1018Q834 1136 758 1212T549 1288Q430 1288 347 1216T229 1030Q221 1032 209 1036T171 1049T127 1063T111 1069Q150 1218 265 1313T551 1409Q740 1409 854 1301T969
1022Q969 896 907 784T729 549L326 119H979V0H59Z" />
<glyph unicode="3" glyph-name="three" horiz-adv-x="1112" d="M541 -16Q370 -16 244 58T51 256L162 315Q281 104 537 104Q708 104 806 203T905 459T804 710T524 805Q429 805 352 778L346 791L758 1274H164V1393H995V1382L590 909Q791 902 915 776T1040 455Q1040
245 902 115T541 -16Z" />
<glyph unicode="4" glyph-name="four" horiz-adv-x="1173" d="M961 383H1112V270H961V0H827V270H31V281L952 1425H961V383ZM827 383V1102L262 383H827Z" />
<glyph unicode="5" glyph-name="five" horiz-adv-x="1110" d="M539 -16Q375 -16 247 53T51 246L164 305Q279 104 539 104Q702 104 796 207T891 471Q891 629 790 731T516 834Q318 834 188 719L178 723V1393H926V1274H299V895Q401 952 532 952Q677 952 790 889T966
716T1028 471Q1028 255 895 120T539 -16Z" />
<glyph unicode="6" glyph-name="six" horiz-adv-x="1126" d="M567 -16Q429 -16 319 46T147 213T86 446Q86 607 201 770L637 1393H784L408 858Q488 911 590 911Q786 911 916 778T1047 449Q1047 254 912 119T567 -16ZM565 102Q720 102 815 203T911 449Q911 597 818
697T565 797Q410 797 316 698T221 449Q221 304 316 203T565 102Z" />
<glyph unicode="7" glyph-name="seven" horiz-adv-x="1099" d="M219 0L858 1274H66V1393H1055V1382L362 0H219Z" />
<glyph unicode="8" glyph-name="eight" horiz-adv-x="1161" d="M381 791Q298 831 248 903T197 1073Q197 1217 308 1313T582 1409T855 1313T967 1073Q967 976 917 904T782 791Q917 746 998 648T1079 414Q1079 225 939 105T582 -16Q366 -16 224 105T82 414Q82 549
164 647T381 791ZM468 842T582 842T765 904T834 1065T765 1228T582 1292Q468 1292 399 1229T330 1065Q330 966 399 904ZM582 102Q744 102 844 190T944 416Q944 553 844 639T582 725Q421 725 320 639T219 416Q219 277 320 190T582 102Z" />
<glyph unicode="9" glyph-name="nine" horiz-adv-x="1140" d="M385 0L731 520Q638 467 543 467Q410 467 304 530T139 700T80 936Q80 1134 217 1271T565 1409Q778 1409 916 1273T1055 940Q1055 857 1024 778T930 604L530 0H385ZM567 582Q725 582 821 684T918 936Q918
1086 823 1188T567 1290T311 1187T215 936Q215 786 309 684T567 582Z" />
<glyph unicode=":" glyph-name="colon" horiz-adv-x="368" d="M222 430T184 430T117 458T88 526Q88 567 117 595T184 623T251 595T281 526Q281 486 252 458ZM222 -12T184 -12T117 16T88 84T117 152T184 180T251 152T281 84T252 16Z" />
<glyph unicode=";" glyph-name="semicolon" horiz-adv-x="374" d="M228 430T190 430T123 458T94 526Q94 567 123 595T190 623Q229 623 258 595T287 526Q287 486 258 458ZM88 -168L152 -4Q127 6 111 29T94 84Q94 124 123 152T190 180T257 152T287 84Q287 58 260
6L160 -168H88Z" />
<glyph unicode="&lt;" glyph-name="less" horiz-adv-x="653" d="M578 356L59 641V649L578 930V807L270 643L578 479V356Z" />
<glyph unicode="=" glyph-name="equal" horiz-adv-x="679" d="M76 717V831H604V717H76ZM76 479V594H604V479H76Z" />
<glyph unicode="&gt;" glyph-name="greater" horiz-adv-x="653" d="M76 356V479L385 643L76 807V930L594 645V637L76 356Z" />
<glyph unicode="?" glyph-name="question" horiz-adv-x="907" d="M342 367V760H401Q535 760 610 837T686 1030Q686 1151 616 1222T428 1294Q331 1294 266 1248T152 1114L49 1174Q102 1280 199 1344T428 1409Q607 1409 713 1303T819 1030Q819 874 723 771T463 651V367H342ZM439
-12T401 -12T334 16T305 84T334 152T401 180T468 152T498 84T469 16Z" />
<glyph unicode="@" glyph-name="at" horiz-adv-x="1511" d="M774 -367Q624 -367 493 -315T269 -170T122 51T68 328Q68 522 161 681T413 931T762 1022Q910 1022 1037 971T1254 833T1393 625T1444 367Q1444 178 1368 77T1174 -25Q1090 -25 1037 15T963 127Q886 -16
717 -16Q589 -16 500 79T410 315Q410 458 499 555T717 653Q871 653 938 526V637H1065V217Q1065 78 1176 78Q1241 78 1285 152T1329 365Q1329 609 1174 763T760 918Q594 918 464 841T262 629T190 328Q190 160 262 26T467 -185T772 -262Q936 -262 1059 -193L1110
-285Q970 -367 774 -367ZM739 92Q827 92 883 155T940 315Q940 413 884 479T739 545Q652 545 598 479T543 315Q543 218 597 155T739 92Z" />
<glyph unicode="A" glyph-name="A" horiz-adv-x="1306" d="M293 242L195 0H61L647 1425H657L1245 0H1108L1012 242H293ZM963 360Q964 360 887 553T731 940L653 1133L340 360H963Z" />
<glyph unicode="B" glyph-name="B" horiz-adv-x="1212" d="M178 0V1393H633Q822 1393 923 1297T1024 1051Q1024 953 978 882T846 772Q980 736 1057 640T1135 406Q1135 228 1019 114T686 0H178ZM311 817H647Q773 817 832 879T891 1049Q891 1151 826 1212T625 1274H311V817ZM311
119H674Q839 119 919 198T999 410Q999 544 916 624T670 705H311V119Z" />
<glyph unicode="C" glyph-name="C" horiz-adv-x="1449" d="M795 -16Q597 -16 435 75T179 329T86 696Q86 899 179 1063T434 1318T791 1409Q964 1409 1103 1342T1337 1149L1235 1075Q1069 1288 788 1288Q629 1288 500 1211T298 999T225 696Q225 570 268 460T388
271T570 149T799 104Q1098 104 1272 336L1376 262Q1164 -16 795 -16Z" />
<glyph unicode="D" glyph-name="D" horiz-adv-x="1353" d="M178 0V1393H526Q867 1393 1064 1201T1262 696T1065 192T526 0H178ZM311 121H514Q813 121 967 277T1122 696T968 1115T514 1272H311V121Z" />
<glyph unicode="E" glyph-name="E" horiz-adv-x="1150" d="M178 0V1393H1018V1274H311V578H942V461H311V119H1047V0H178Z" />
<glyph unicode="F" glyph-name="F" horiz-adv-x="1103" d="M178 0V1393H1010V1274H311V578H946V459H311V0H178Z" />
<glyph unicode="G" glyph-name="G" horiz-adv-x="1562" d="M803 -16Q607 -16 443 75T183 331T86 696Q86 898 181 1062T440 1317T799 1409Q1178 1409 1372 1133L1270 1057Q1106 1288 797 1288Q675 1288 569 1243T387 1119T269 931T225 696Q225 529 299 394T506
181T803 104Q918 104 1011 134T1166 217T1265 329T1323 459H827V578H1477Q1456 308 1278 146T803 -16Z" />
<glyph unicode="H" glyph-name="H" horiz-adv-x="1382" d="M1071 578V1393H1204V0H1071V459H311V0H178V1393H311V578H1071Z" />
<glyph unicode="I" glyph-name="I" horiz-adv-x="507" d="M186 0V1393H322V0H186Z" />
<glyph unicode="J" glyph-name="J" horiz-adv-x="942" d="M412 -16Q168 -16 55 188L164 256Q246 104 408 104Q515 104 577 169T639 367V1393H774V362Q774 180 674 82T412 -16Z" />
<glyph unicode="K" glyph-name="K" horiz-adv-x="1169" d="M311 565L944 1393H1096L451 547L1112 0H920Q881 32 818 84T622 245T400 428T311 500V0H178V1393H311V565Z" />
<glyph unicode="L" glyph-name="L" horiz-adv-x="1028" d="M178 0V1393H311V119H958V0H178Z" />
<glyph unicode="M" glyph-name="M" horiz-adv-x="1685" d="M147 0L303 1421H313L842 473L1372 1421H1382L1538 0H1407L1292 1063L842 248H836L387 1063L272 0H147Z" />
<glyph unicode="N" glyph-name="N" horiz-adv-x="1431" d="M1241 -29L303 1096V0H178V1421H190L1128 297V1393H1253V-29H1241Z" />
<glyph unicode="O" glyph-name="O" horiz-adv-x="1601" d="M997 -16T801 -16T442 75T182 331T86 696Q86 898 182 1062T441 1317T801 1409T1160 1318T1420 1062T1516 696Q1516 495 1420 331T1161 76ZM553 104T801 104T1212 273T1376 696T1213 1119T801 1288T389
1119T225 696T389 273Z" />
<glyph unicode="P" glyph-name="P" horiz-adv-x="1146" d="M311 348V0H178V1393H477Q751 1393 901 1248T1051 868Q1051 755 1014 661T906 496T725 387T477 348H311ZM311 467H469Q696 467 804 575T913 868Q913 1054 805 1164T469 1274H311V467Z" />
<glyph unicode="Q" glyph-name="Q" horiz-adv-x="1601" d="M1309 188L1538 -57L1444 -139L1212 109Q1031 -16 801 -16Q605 -16 442 75T182 331T86 696Q86 898 182 1062T441 1317T801 1409T1160 1318T1420 1062T1516 696Q1516 546 1462 416T1309 188ZM1128 199L956
385L1053 467L1225 281Q1376 448 1376 696Q1376 950 1213 1119T801 1288T389 1119T225 696T389 273T801 104Q986 104 1128 199Z" />
<glyph unicode="R" glyph-name="R" horiz-adv-x="1167" d="M731 387L1034 0H872L596 356Q547 348 481 348H311V0H178V1393H481Q620 1393 730 1354T912 1244T1020 1078T1057 868Q1057 697 973 570T731 387ZM311 465H473Q701 465 809 574T918 868Q918 1054 809 1164T473
1274H311V465Z" />
<glyph unicode="S" glyph-name="S" horiz-adv-x="1075" d="M59 264L172 324Q228 218 321 161T537 104Q678 104 759 169T840 344Q840 401 824 444T771 523T690 586T578 645L465 698Q383 737 329 771T230 849T164 950T143 1077Q143 1225 244 1317T502 1409Q632 1409
725 1359T883 1204L780 1139Q733 1217 666 1254T504 1292Q402 1292 338 1233T274 1081Q274 1032 287 996T335 930T409 876T520 819L633 766Q752 709 822 656T932 527T973 348Q973 178 855 81T539 -16Q373 -16 252 58T59 264Z" />
<glyph unicode="T" glyph-name="T" horiz-adv-x="1097" d="M483 0V1274H51V1393H1047V1274H616V0H483Z" />
<glyph unicode="U" glyph-name="U" horiz-adv-x="1318" d="M659 -16Q517 -16 408 38T233 204T168 473V1393H301V483Q301 298 396 201T659 104Q828 104 923 201T1018 483V1393H1151V473Q1151 316 1086 204T912 38T659 -16Z" />
<glyph unicode="V" glyph-name="V" horiz-adv-x="1306" d="M649 -29L61 1393H205L655 272L1108 1393H1245L657 -29H649Z" />
<glyph unicode="W" glyph-name="W" horiz-adv-x="1875" d="M879 831L643 1393H776L942 991L1106 1393H1233L1004 842Q1004 843 1064 698T1184 408L1245 262L1683 1393H1815L1253 -29H1241L940 686L643 -29H631L61 1393H199L647 260L879 831Z" />
<glyph unicode="X" glyph-name="X" horiz-adv-x="1273" d="M561 754L152 1393H303L637 872L971 1393H1114L709 762L1198 0H1047L633 643Q633 644 530 483T322 161L219 0H76Q107 48 157 126T313 369T490 645T561 754Z" />
<glyph unicode="Y" glyph-name="Y" horiz-adv-x="1290" d="M582 436L55 1393H203L651 571L1098 1393H1237L717 436V0H582V436Z" />
<glyph unicode="Z" glyph-name="Z" horiz-adv-x="1175" d="M66 0V8L877 1274H166V1393H1094V1384L283 119H1098V0H66Z" />
<glyph unicode="[" glyph-name="bracketleft" horiz-adv-x="577" d="M162 -262V1454H504V1343H291V-152H504V-262H162Z" />
<glyph unicode="\" glyph-name="backslash" horiz-adv-x="833" d="M690 -262L78 1454H207L821 -262H690Z" />
<glyph unicode="]" glyph-name="bracketright" horiz-adv-x="579" d="M74 -262V-152H289V1343H74V1454H418V-262H74Z" />
<glyph unicode="^" glyph-name="asciicircum" horiz-adv-x="563" d="M80 459V580H483V459H80Z" />
<glyph unicode="_" glyph-name="underscore" horiz-adv-x="518" d="M-4 -262V-150H522V-262H-4Z" />
<glyph unicode="`" glyph-name="grave" horiz-adv-x="1024" d="M467 778L311 1067H453L567 778H467Z" />
<glyph unicode="a" glyph-name="a" horiz-adv-x="856" d="M389 -16Q249 -16 155 84T61 336Q61 488 155 589T389 690Q554 690 627 559V674H752V0H627V115Q554 -16 389 -16ZM414 94Q511 94 571 161T631 336Q631 444 572 512T414 580Q315 580 254 512T193 336Q193
229 254 162T414 94Z" />
<glyph unicode="b" glyph-name="b" horiz-adv-x="868" d="M475 -16Q306 -16 231 115V0H106V1454H231V559Q306 690 475 690Q617 690 712 589T807 336Q807 185 712 85T475 -16ZM451 94Q552 94 615 162T678 336Q678 444 615 512T451 580Q351 580 289 512T227 336Q227
230 289 162T451 94Z" />
<glyph unicode="c" glyph-name="c" horiz-adv-x="739" d="M410 -16Q262 -16 162 85T61 336Q61 488 161 589T410 690Q576 690 676 582L592 506Q522 582 410 582Q313 582 253 512T193 336Q193 231 253 162T410 92Q531 92 608 176L692 102Q593 -16 410 -16Z" />
<glyph unicode="d" glyph-name="d" horiz-adv-x="872" d="M395 -16Q254 -16 158 85T61 336Q61 488 157 589T395 690Q563 690 639 559V1454H764V0H639V115Q563 -16 395 -16ZM317 94T418 94T581 162T643 336Q643 444 581 512T418 580T255 512T193 336Q193 230 255 162Z" />
<glyph unicode="e" glyph-name="e" horiz-adv-x="819" d="M193 291Q207 197 268 144T428 90Q561 90 639 178L717 102Q617 -16 430 -16Q267 -16 164 84T61 336Q61 487 164 588T416 690Q575 690 668 579T758 291H193ZM197 395H627Q613 480 560 532T416 584Q329 584
271 533T197 395Z" />
<glyph unicode="f" glyph-name="f" horiz-adv-x="491" d="M266 567V0H141V567H53V674H141V1251Q141 1359 193 1414T336 1470Q442 1470 500 1399L426 1319Q395 1360 344 1360Q266 1360 266 1249V674H436V567H266Z" />
<glyph unicode="g" glyph-name="g" horiz-adv-x="872" d="M424 -455Q305 -455 218 -402T82 -252L186 -199Q220 -269 280 -306T420 -344Q523 -344 581 -283T639 -109V115Q563 -16 395 -16Q254 -16 158 85T61 336Q61 488 157 589T395 690Q563 690 639 559V674H764V-111Q764
-271 674 -363T424 -455ZM317 94T418 94T581 162T643 336Q643 444 581 512T418 580T255 512T193 336Q193 230 255 162Z" />
<glyph unicode="h" glyph-name="h" horiz-adv-x="813" d="M104 0V1454H229V565Q305 690 461 690Q576 690 647 618T719 414V0H594V401Q594 578 430 578Q338 578 284 524T229 373V0H104Z" />
<glyph unicode="i" glyph-name="i" horiz-adv-x="344" d="M207 920T172 920T112 944T86 1006Q86 1042 112 1067T172 1092T232 1067T258 1006Q258 969 233 945ZM109 0V674H236V0H109Z" />
<glyph unicode="j" glyph-name="j" horiz-adv-x="348" d="M211 920T176 920T116 944T90 1006Q90 1042 116 1067T176 1092T236 1067T262 1006Q262 969 237 945ZM55 -453Q-27 -453 -84 -399L-20 -317Q7 -342 41 -342Q113 -342 113 -250V674H240V-250Q240 -347 191
-400T55 -453Z" />
<glyph unicode="k" glyph-name="k" horiz-adv-x="714" d="M229 287V0H104V1454H229V352L514 674H659L352 330L696 0H528L229 287Z" />
<glyph unicode="l" glyph-name="l" horiz-adv-x="348" d="M111 0V1454H238V0H111Z" />
<glyph unicode="m" glyph-name="m" horiz-adv-x="1208" d="M104 0V674H229V582Q287 690 430 690Q572 690 633 565Q712 690 870 690Q979 690 1046 621T1114 430V0H989V416Q989 578 846 578Q762 578 717 530T672 391V0H547V414Q547 578 403 578Q320 578 275 529T229
387V0H104Z" />
<glyph unicode="n" glyph-name="n" horiz-adv-x="813" d="M104 0V674H229V565Q261 626 322 658T461 690Q576 690 647 618T719 414V0H594V401Q594 578 430 578Q338 578 284 524T229 373V0H104Z" />
<glyph unicode="o" glyph-name="o" horiz-adv-x="837" d="M420 -16Q269 -16 165 85T61 336Q61 487 164 588T420 690Q570 690 673 589T776 336Q776 186 673 85T420 -16ZM320 90T420 90T583 160T647 336Q647 443 584 513T420 584T257 514T193 336Q193 230 256 160Z" />
<glyph unicode="p" glyph-name="p" horiz-adv-x="868" d="M106 -434V674H231V559Q306 690 475 690Q617 690 712 589T807 336Q807 185 712 85T475 -16Q306 -16 231 115V-434H106ZM451 94Q552 94 615 162T678 336Q678 444 615 512T451 580Q351 580 289 512T227 336Q227
230 289 162T451 94Z" />
<glyph unicode="q" glyph-name="q" horiz-adv-x="872" d="M639 -434V115Q563 -16 395 -16Q254 -16 158 85T61 336Q61 488 157 589T395 690Q563 690 639 559V674H764V-434H639ZM317 94T418 94T581 162T643 336Q643 444 581 512T418 580T255 512T193 336Q193 230 255 162Z" />
<glyph unicode="r" glyph-name="r" horiz-adv-x="557" d="M104 0V674H229V561Q260 625 312 657T426 690Q489 690 532 664L489 557Q456 575 406 575Q328 575 279 516T229 356V0H104Z" />
<glyph unicode="s" glyph-name="s" horiz-adv-x="651" d="M334 -16Q143 -16 45 135L135 199Q201 90 334 90Q398 90 433 114T469 180Q469 223 434 247T305 297Q197 327 145 373T92 504Q92 587 153 638T313 690Q462 690 545 582L461 512Q406 584 315 584Q266 584
238 563T209 508Q209 466 240 447T356 406Q471 376 530 325T590 186Q590 91 522 38T334 -16Z" />
<glyph unicode="t" glyph-name="t" horiz-adv-x="505" d="M141 567H53V674H141V1094H266V674H434V567H266V182Q266 92 338 92Q375 92 412 121L465 33Q413 -16 324 -16Q238 -16 190 31T141 176V567Z" />
<glyph unicode="u" glyph-name="u" horiz-adv-x="798" d="M534 -16T397 -16T178 62T96 293V674H221V301Q221 94 399 94Q578 94 578 301V674H702V293Q702 142 618 63Z" />
<glyph unicode="v" glyph-name="v" horiz-adv-x="720" d="M362 -23L20 674H160L371 221L571 674H700L371 -23H362Z" />
<glyph unicode="w" glyph-name="w" horiz-adv-x="1083" d="M309 -23L20 674H160L330 240L541 694H547L764 240L936 674H1063L772 -23H764L543 453L317 -23H309Z" />
<glyph unicode="x" glyph-name="x" horiz-adv-x="747" d="M303 360L78 674H223L377 459L535 674H670Q444 367 442 367L707 0H561L371 266L176 0H41L303 360Z" />
<glyph unicode="y" glyph-name="y" horiz-adv-x="714" d="M303 55L20 674H162L367 203L565 674H694L225 -434H96L303 55Z" />
<glyph unicode="z" glyph-name="z" horiz-adv-x="673" d="M45 0V6L424 567H92V674H623V666L244 106H612V0H45Z" />
<glyph unicode="{" glyph-name="braceleft" horiz-adv-x="669" d="M522 -262Q468 -262 426 -250T344 -208T282 -119T260 27V322Q260 399 231 430T143 461H49V571H143Q202 571 231 602T260 711V1165Q260 1251 282 1310T343 1400T425 1442T522 1454H596V1343H526Q459
1343 425 1304T391 1167V692Q391 543 270 518Q391 493 391 342V25Q391 -73 425 -112T526 -152H596V-262H522Z" />
<glyph unicode="|" glyph-name="bar" horiz-adv-x="464" d="M168 -262V1454H297V-262H168Z" />
<glyph unicode="}" glyph-name="braceright" horiz-adv-x="669" d="M74 -262V-152H143Q211 -152 246 -113T281 25V342Q281 491 399 516Q281 541 281 692V1167Q281 1265 246 1304T143 1343H74V1454H147Q410 1454 410 1165V713Q410 635 439 603T526 571H621V461H526Q468
461 439 430T410 322V27Q410 -262 147 -262H74Z" />
<glyph unicode="~" glyph-name="asciitilde" horiz-adv-x="698" d="M459 455Q420 455 380 474T307 513T250 532Q199 532 180 459L78 473Q92 556 136 603T244 651Q282 651 321 632T394 594T453 575Q501 575 522 647L621 633Q608 551 565 503T459 455Z" />
</font>
</defs>
</svg>
