<?xml version="1.0" standalone="no"?> <!DOCTYPE svg PUBLIC "-//W3C//DTD SVG 1.0//EN" "http://www.w3.org/TR/2001/REC-SVG-20010904/DTD/svg10.dtd" > <svg xmlns="http://www.w3.org/2000/svg" width="100%" height="100%">
<defs >
<font id="whitneybold" horiz-adv-x="426" ><font-face
    font-family="Whitney"
    units-per-em="1000"
    panose-1="2 0 8 3 0 0 0 0 0 0"
    ascent="954"
    descent="-200"
    alphabetic="0" />
<missing-glyph horiz-adv-x="500" />
<glyph unicode=" " glyph-name="space" horiz-adv-x="209" />
<glyph unicode="!" glyph-name="exclam" horiz-adv-x="295" d="M242 690L195 258L103 238L54 690H242ZM229 0H66V172H229V0Z" />
<glyph unicode="&quot;" glyph-name="quotedbl" horiz-adv-x="520" d="M473 676L429 376L333 397L292 676H473ZM228 676L184 376L87 397L47 676H228Z" />
<glyph unicode="#" glyph-name="numbersign" horiz-adv-x="673" d="M236 141L213 -9L122 12L142 141H38V268H162L183 408H74L53 535H203L226 678H322L299 535H436L460 685L552 664L531 535H635V408H512L489 268H600L620 141H469L446 -2H351L373 141H236ZM278 411L255
265H395L418 411H278Z" />
<glyph unicode="$" glyph-name="dollar" horiz-adv-x="549" d="M366 673Q430 662 488 631L467 508Q406 544 343 557L321 411Q422 379 467 334T512 203Q512 100 445 48T265 -5H264L247 -122L174 -106L189 1Q106 14 29 53L48 175Q137 127 213 116L239 287Q139 318
93 360T47 486Q47 578 109 629T282 681H292L303 755L376 739L366 673ZM276 112Q377 114 377 186Q377 214 360 232T299 268L276 112ZM280 565H269Q182 565 182 503Q182 478 198 462T260 430L280 565Z" />
<glyph unicode="%" glyph-name="percent" horiz-adv-x="894" d="M373 486Q373 392 326 339T206 286Q133 286 86 338T38 485Q38 578 85 631T206 684T326 632T373 486ZM708 663L275 -7L186 13L618 683L708 663ZM268 486Q268 600 206 600Q142 600 142 485Q142 431
158 401T206 371Q268 371 268 486ZM856 191Q856 98 809 45T688 -8T568 44T521 190Q521 284 568 337T688 390Q761 390 808 338T856 191ZM751 191Q751 245 735 275T688 305Q625 305 625 190Q625 136 641 106T688 76Q751 76 751 191Z" />
<glyph unicode="&amp;" glyph-name="ampersand" horiz-adv-x="662" d="M673 16L504 -6L444 61Q364 -11 255 -11Q150 -11 89 39T27 178Q27 303 163 382Q132 421 119 454T106 530Q106 609 160 656T309 703Q415 703 494 659L472 525Q385 572 325 572Q295 572 280
558T264 520Q264 486 305 441L446 280Q467 338 475 412L603 384Q585 260 537 174L673 16ZM370 148L240 294Q183 250 183 196Q183 157 209 134T281 110Q329 110 370 148Z" />
<glyph unicode="&apos;" glyph-name="quotesingle" horiz-adv-x="278" d="M231 676L188 376L87 397L47 676H231Z" />
<glyph unicode="(" glyph-name="parenleft" horiz-adv-x="408" d="M389 -67L273 -94Q160 -6 103 87T45 310Q45 588 343 726L358 624Q284 560 249 488T214 312Q214 200 254 116T389 -67Z" />
<glyph unicode=")" glyph-name="parenright" horiz-adv-x="408" d="M362 318Q362 40 65 -99L50 4Q124 69 159 141T195 316Q195 427 155 511T19 695L135 722Q248 633 305 540T362 318Z" />
<glyph unicode="*" glyph-name="asterisk" horiz-adv-x="438" d="M407 546L300 477L347 358L316 338L219 418L121 338L91 358L138 477L31 546L42 581L170 574L199 696H238L268 574L396 581L407 546Z" />
<glyph unicode="+" glyph-name="plus" horiz-adv-x="572" d="M518 279H347V102H225V279H54V397H225V574H347V397H518V279Z" />
<glyph unicode="," glyph-name="comma" horiz-adv-x="258" d="M237 172L112 -148L22 -127L66 172H237Z" />
<glyph unicode="-" glyph-name="hyphen" horiz-adv-x="354" d="M314 219H41V363H314V219Z" />
<glyph unicode="." glyph-name="period" horiz-adv-x="258" d="M211 0H49V172H211V0Z" />
<glyph unicode="/" glyph-name="slash" horiz-adv-x="530" d="M518 672L88 -127L-36 -100L394 699L518 672Z" />
<glyph unicode="0" glyph-name="zero" horiz-adv-x="634" d="M598 505T598 338T522 79T318 -13Q189 -13 113 79T36 338T112 597T318 689Q446 689 522 597ZM433 114T433 338T318 562Q202 562 202 338T318 114Q433 114 433 338Z" />
<glyph unicode="1" glyph-name="one" horiz-adv-x="407" d="M339 0H171V520L35 467L17 597L190 677H339V0Z" />
<glyph unicode="2" glyph-name="two" horiz-adv-x="552" d="M517 0H40V119L273 352Q309 389 325 416T341 475Q341 509 318 528T254 547Q170 547 75 478L55 620Q155 687 279 687Q383 687 443 636T504 493Q504 428 474 378T375 263L240 132H496L517 0Z" />
<glyph unicode="3" glyph-name="three" horiz-adv-x="545" d="M508 189Q508 93 437 40T253 -13Q125 -13 31 40L52 171Q145 121 238 121Q288 121 316 141T345 201Q345 245 311 266T198 288H157L137 410H200Q332 410 332 488Q332 555 235 555Q146 555 62 499L41
627Q132 689 260 689Q371 689 434 640T497 511Q497 398 378 354Q508 312 508 189Z" />
<glyph unicode="4" glyph-name="four" horiz-adv-x="610" d="M591 135H496V0H339V135H26V239L311 677H496V248H591V135ZM339 248V516L166 248H339Z" />
<glyph unicode="5" glyph-name="five" horiz-adv-x="555" d="M519 226Q519 112 444 50T244 -13Q135 -13 34 33L56 172Q156 123 242 123Q296 123 329 148T363 218Q363 260 336 283T260 306Q210 306 163 286L60 309L83 676H482L503 541H209L201 421Q247 433 297
433Q398 433 458 379T519 226Z" />
<glyph unicode="6" glyph-name="six" horiz-adv-x="577" d="M192 380Q267 429 355 429Q439 429 493 377T547 224Q547 118 476 53T296 -13Q178 -13 107 61T36 273Q36 446 142 550T426 690L447 558Q237 510 192 380ZM186 272Q187 191 217 150T296 108Q340 108 366
136T392 214Q392 311 297 311Q244 311 186 272Z" />
<glyph unicode="7" glyph-name="seven" horiz-adv-x="541" d="M505 547L255 -7L96 21L333 537H50L29 676H505V547Z" />
<glyph unicode="8" glyph-name="eight" horiz-adv-x="589" d="M322 406Q384 451 384 506Q384 540 359 561T293 582Q253 582 230 561T207 508T232 454T322 406ZM260 303Q188 254 188 192Q188 150 218 126T297 101Q340 101 368 124T397 184Q397 223 369 247T260
303ZM156 352Q57 411 57 505Q57 590 124 639T299 689T469 641T533 515Q533 423 431 358Q493 327 523 287T553 186Q553 98 483 43T294 -13Q172 -13 104 41T35 176Q35 284 156 352Z" />
<glyph unicode="9" glyph-name="nine" horiz-adv-x="577" d="M383 287Q306 238 226 238Q137 238 84 291T30 447Q30 557 100 623T280 689Q399 689 470 615T541 403Q541 229 433 124T141 -14L122 118Q335 159 383 287ZM391 393V395Q391 482 361 525T281 568Q238
568 212 539T185 458Q185 356 281 356Q336 356 391 393Z" />
<glyph unicode=":" glyph-name="colon" horiz-adv-x="267" d="M215 320H53V490H215V320ZM215 0H53V170H215V0Z" />
<glyph unicode=";" glyph-name="semicolon" horiz-adv-x="267" d="M221 320H59V490H221V320ZM232 170L108 -148L17 -127L61 170H232Z" />
<glyph unicode="&lt;" glyph-name="less" horiz-adv-x="572" d="M504 63L57 285V391L504 613V483L206 339L504 194V63Z" />
<glyph unicode="=" glyph-name="equal" horiz-adv-x="590" d="M518 399H73V519H518V399ZM518 158H73V277H518V158Z" />
<glyph unicode="&gt;" glyph-name="greater" horiz-adv-x="572" d="M515 285L68 63V194L366 337L68 482V613L515 391V285Z" />
<glyph unicode="?" glyph-name="question" horiz-adv-x="506" d="M293 0H131V172H293V0ZM270 285L267 252L168 229L157 381L188 391Q261 412 291 436T321 498Q321 529 299 546T236 564Q147 564 47 493L26 633Q129 703 258 703Q364 703 422 653T481 511Q481 426
429 373T270 285Z" />
<glyph unicode="@" glyph-name="at" horiz-adv-x="835" d="M458 212L482 362Q460 368 443 368Q399 368 367 319T335 200Q335 148 372 148Q406 148 458 212ZM462 130Q392 48 324 48Q276 48 246 82T215 179Q215 302 282 381T446 461Q528 461 610 428L577 214Q573
186 573 163Q573 139 588 124T635 108Q686 108 719 162T752 311Q752 456 672 530T458 605Q306 605 194 485T82 191Q82 39 162 -33T379 -105Q496 -105 592 -57L598 -93Q502 -140 375 -140Q216 -140 127 -56T38 190Q38 309 95 413T250 579T462 641Q614 641 705 554T796
312Q796 191 744 120T598 48Q550 48 513 70T462 130Z" />
<glyph unicode="A" glyph-name="A" horiz-adv-x="702" d="M689 21L517 -7L465 143H228L180 0H13L261 693H449L689 21ZM424 277L346 517L268 277H424Z" />
<glyph unicode="B" glyph-name="B" horiz-adv-x="588" d="M558 199Q558 101 489 51T293 0H63V690H298Q414 690 473 644T532 511Q532 409 433 365Q558 325 558 199ZM380 492Q380 567 286 567H225V411H282Q329 411 354 432T380 492ZM397 210Q397 301 286 301H225V123H288Q397
123 397 210Z" />
<glyph unicode="C" glyph-name="C" horiz-adv-x="605" d="M569 39Q477 -12 373 -12Q217 -12 128 84T38 344Q38 504 129 603T368 702Q479 702 559 657L535 503Q461 559 381 559Q302 559 256 502T209 345Q209 244 259 188T390 131Q461 131 547 179L569 39Z" />
<glyph unicode="D" glyph-name="D" horiz-adv-x="705" d="M666 346Q666 189 571 95T305 0H63V690H300Q476 690 571 597T666 346ZM494 345Q494 450 441 503T296 557H234V133H296Q391 133 442 185T494 345Z" />
<glyph unicode="E" glyph-name="E" horiz-adv-x="535" d="M502 0H63V690H493V553H231V427H431L453 286H231V137H502V0Z" />
<glyph unicode="F" glyph-name="F" horiz-adv-x="503" d="M476 547H233V407H413L437 262H233V0H63V690H476V547Z" />
<glyph unicode="G" glyph-name="G" horiz-adv-x="682" d="M630 60Q518 -13 378 -13Q217 -13 128 84T38 344Q38 506 131 604T382 703Q503 703 593 652L570 503Q477 562 386 562Q299 562 254 504T209 345Q209 244 255 184T388 124Q440 124 481 146V269H361L341 396H630V60Z" />
<glyph unicode="H" glyph-name="H" horiz-adv-x="707" d="M644 0H473V282H234V0H63V690H234V432H473V690H644V0Z" />
<glyph unicode="I" glyph-name="I" horiz-adv-x="305" d="M238 0H67V690H238V0Z" />
<glyph unicode="J" glyph-name="J" horiz-adv-x="425" d="M368 210Q368 98 306 46T137 -7Q74 -7 42 2L19 146Q59 135 100 135Q148 135 172 158T196 237V690H368V210Z" />
<glyph unicode="K" glyph-name="K" horiz-adv-x="650" d="M650 21L466 -7L234 321V0H63V690H234V395L451 690H641L397 371L650 21Z" />
<glyph unicode="L" glyph-name="L" horiz-adv-x="485" d="M469 0H63V690H234V148H446L469 0Z" />
<glyph unicode="M" glyph-name="M" horiz-adv-x="891" d="M848 0H674L644 459L513 -1H353L222 459L192 0H43L93 690H314L448 215L583 690H798L848 0Z" />
<glyph unicode="N" glyph-name="N" horiz-adv-x="705" d="M642 0H494L222 413V0H63V690H229L483 304V690H642V0Z" />
<glyph unicode="O" glyph-name="O" horiz-adv-x="735" d="M697 346Q697 185 607 86T366 -13Q218 -13 128 85T38 344Q38 505 128 604T368 703T607 605T697 346ZM525 241T525 345T483 509T367 569T251 509T209 345Q209 242 251 182T367 121T483 181Z" />
<glyph unicode="P" glyph-name="P" horiz-adv-x="574" d="M556 465Q556 351 481 290T278 229H234V0H63V690H285Q413 690 484 633T556 465ZM390 462Q390 561 275 561H232V358H272Q390 358 390 462Z" />
<glyph unicode="Q" glyph-name="Q" horiz-adv-x="735" d="M697 356Q697 250 655 173T536 54L697 3L665 -143L278 -4Q157 39 98 124T38 344Q38 505 128 604T368 703T607 609T697 356ZM525 344Q525 445 483 507T367 569T251 507T209 344Q209 242 251 180T367 117Q441
117 483 179T525 344Z" />
<glyph unicode="R" glyph-name="R" horiz-adv-x="615" d="M401 462Q401 510 372 535T287 561H232V360H285Q340 360 370 386T401 462ZM441 276L606 22L431 -7L280 237H233V0H63V690H304Q430 690 499 634T569 472Q569 332 441 276Z" />
<glyph unicode="S" glyph-name="S" horiz-adv-x="553" d="M523 208Q523 101 454 47T276 -8Q149 -8 35 44L60 190Q180 126 279 126Q317 126 339 142T362 188T340 236T245 282Q135 324 91 368T47 494Q47 590 113 644T283 698Q396 698 491 652L465 508Q369 564 285
564Q247 564 228 550T208 510Q208 483 228 466T313 425Q429 383 476 336T523 208Z" />
<glyph unicode="T" glyph-name="T" horiz-adv-x="609" d="M595 545H388V0H216V545H25V690H571L595 545Z" />
<glyph unicode="U" glyph-name="U" horiz-adv-x="688" d="M633 274Q633 135 553 62T342 -11Q210 -11 133 61T55 273V690H227V274Q227 207 257 170T344 133Q402 133 431 169T461 272V690H633V274Z" />
<glyph unicode="V" glyph-name="V" horiz-adv-x="692" d="M679 690L430 -3H255L13 669L199 697L353 213L503 690H679Z" />
<glyph unicode="W" glyph-name="W" horiz-adv-x="990" d="M972 690L784 0H611L492 445L373 0H201L19 668L204 697L308 258L420 690H592L704 258L803 690H972Z" />
<glyph unicode="X" glyph-name="X" horiz-adv-x="661" d="M230 351L30 668L212 697Q337 480 337 479L456 690H632L431 364L486 278Q540 193 594 108L648 22L465 -7L323 236L187 0H12L230 351Z" />
<glyph unicode="Y" glyph-name="Y" horiz-adv-x="672" d="M666 690L418 254V0H246V252L8 672L190 697L340 410L487 690H666Z" />
<glyph unicode="Z" glyph-name="Z" horiz-adv-x="613" d="M580 0H40V124L362 554H75L54 690H571V566L249 136H558L580 0Z" />
<glyph unicode="[" glyph-name="bracketleft" horiz-adv-x="418" d="M383 -104H71V690H378V598H216V-11H367L383 -104Z" />
<glyph unicode="\" glyph-name="backslash" horiz-adv-x="530" d="M566 -101L441 -127L11 672L136 699L566 -101Z" />
<glyph unicode="]" glyph-name="bracketright" horiz-adv-x="418" d="M347 -104H40V-11H202V598H50L35 690H347V-104Z" />
<glyph unicode="^" glyph-name="asciicircum" horiz-adv-x="454" d="M394 560L305 543L228 605L154 547H58L160 694H298L394 560Z" />
<glyph unicode="_" glyph-name="underscore" horiz-adv-x="454" d="M456 -104H-2V-34H456V-104Z" />
<glyph unicode="`" glyph-name="grave" horiz-adv-x="454" d="M341 547H242L96 668L281 698L341 547Z" />
<glyph unicode="a" glyph-name="a" horiz-adv-x="507" d="M459 0H325L315 61Q247 -10 161 -10Q101 -10 65 25T28 126Q28 211 95 255T308 312V321Q308 383 234 383T76 346L58 460Q151 498 257 498Q361 498 410 459T459 328V0ZM308 135V239Q235 228 206 205T177
146Q177 123 190 111T224 98Q266 98 308 135Z" />
<glyph unicode="b" glyph-name="b" horiz-adv-x="541" d="M510 258Q510 125 445 60T262 -6Q143 -6 52 29V698L203 722V436Q265 500 334 500Q413 500 461 439T510 258ZM359 248Q359 365 286 365Q245 365 203 318V124Q233 115 258 115Q359 115 359 248Z" />
<glyph unicode="c" glyph-name="c" horiz-adv-x="451" d="M421 35Q349 -9 265 -9Q158 -9 93 57T28 241Q28 365 96 431T271 498Q353 498 417 461L397 332Q341 368 286 368Q239 368 210 337T181 245T212 153T291 120Q344 120 403 158L421 35Z" />
<glyph unicode="d" glyph-name="d" horiz-adv-x="544" d="M492 0H358L348 64Q282 -10 207 -10Q128 -10 79 51T30 231Q30 363 89 428T237 493Q296 493 341 477V698L492 722V0ZM341 174V361Q310 375 270 375T206 342T182 242Q182 182 202 153T257 124Q296 124 341 174Z" />
<glyph unicode="e" glyph-name="e" horiz-adv-x="505" d="M476 246Q476 219 473 207H179Q190 100 299 100Q371 100 460 151L475 45Q389 -10 280 -10Q165 -10 97 53T28 243Q28 361 92 430T259 500Q367 500 421 430T476 246ZM332 290Q324 402 255 402Q223 402 203
374T178 290H332Z" />
<glyph unicode="f" glyph-name="f" horiz-adv-x="341" d="M346 592Q316 596 292 596Q232 596 232 536V490H321L339 367H232V0H81V367H13V490H81V551Q81 713 267 713Q286 713 328 708L346 592Z" />
<glyph unicode="g" glyph-name="g" horiz-adv-x="534" d="M155 9Q126 -20 126 -46Q126 -104 252 -104Q309 -104 342 -88T376 -46Q376 -29 361 -20T305 -7L232 -1Q198 2 155 9ZM315 329Q315 364 296 386T243 409Q211 409 192 386T173 326Q173 291 191 270T243 248Q277
248 296 270T315 329ZM392 451L508 495L527 383Q442 381 441 381Q450 355 450 329Q450 252 392 206T247 160Q224 160 201 163Q189 151 189 141Q189 130 203 126T267 115L357 109Q434 101 474 74T514 -6Q514 -85 437 -133T240 -182Q134 -182 69 -151T4 -65Q4 -4
84 40Q57 64 57 94Q57 141 130 182Q36 225 36 324Q36 403 94 450T242 498T392 451Z" />
<glyph unicode="h" glyph-name="h" horiz-adv-x="537" d="M488 0H336V307Q336 366 286 366Q247 366 203 322V0H52V698L203 722V429Q276 500 349 500Q416 500 452 460T488 348V0Z" />
<glyph unicode="i" glyph-name="i" horiz-adv-x="262" d="M217 635Q217 599 193 577T131 554T70 576T45 635Q45 672 69 694T131 717T192 695T217 635ZM207 0H55V490H207V0Z" />
<glyph unicode="j" glyph-name="j" horiz-adv-x="263" d="M217 635Q217 599 193 577T131 554T70 576T45 635Q45 672 69 694T131 717T192 695T217 635ZM207 -14Q207 -182 36 -182Q2 -182 -18 -178L-36 -60Q-14 -64 0 -64Q27 -64 41 -50T55 -2V490H207V-14Z" />
<glyph unicode="k" glyph-name="k" horiz-adv-x="505" d="M502 15L345 -7L203 228V0H52V698L203 722V289L334 490H496L342 267L502 15Z" />
<glyph unicode="l" glyph-name="l" horiz-adv-x="262" d="M207 0H55V698L207 722V0Z" />
<glyph unicode="m" glyph-name="m" horiz-adv-x="811" d="M762 0H610V307Q610 366 562 366Q527 366 482 323V0H331V307Q331 366 283 366Q248 366 203 323V0H52V490H185L196 423Q271 500 348 500Q439 500 470 423Q547 500 623 500Q690 500 726 460T762 348V0Z" />
<glyph unicode="n" glyph-name="n" horiz-adv-x="537" d="M488 0H336V307Q336 366 286 366Q247 366 203 322V0H52V490H185L196 423Q275 500 349 500Q416 500 452 460T488 348V0Z" />
<glyph unicode="o" glyph-name="o" horiz-adv-x="527" d="M499 361T499 245T433 60T262 -10Q159 -10 94 59T28 244T94 430T263 500Q367 500 433 431ZM353 184T353 244T330 340T263 376T197 341T174 245Q174 185 197 149T263 112Q306 112 329 148Z" />
<glyph unicode="p" glyph-name="p" horiz-adv-x="544" d="M512 258Q512 127 453 61T306 -5Q256 -5 203 12V-163L52 -186V490H185L195 425Q262 500 336 500Q416 500 464 439T512 258ZM361 248Q361 307 341 336T287 365Q245 365 203 315V129Q234 114 272 114Q313
114 337 147T361 248Z" />
<glyph unicode="q" glyph-name="q" horiz-adv-x="541" d="M489 -163L338 -186V53Q273 -10 207 -10Q127 -10 79 51T30 231Q30 364 96 430T278 496Q392 496 489 461V-163ZM338 171V365Q312 374 282 374Q182 374 182 242Q182 124 255 124Q293 124 338 171Z" />
<glyph unicode="r" glyph-name="r" horiz-adv-x="377" d="M368 346Q265 339 203 272V0H52V490H184L200 393Q254 494 343 500L368 346Z" />
<glyph unicode="s" glyph-name="s" horiz-adv-x="464" d="M435 151Q435 74 384 33T234 -8Q125 -8 32 41L50 156Q143 98 235 98Q297 98 297 135Q297 154 281 165T214 188Q117 213 78 246T39 345Q39 414 88 455T227 497Q328 497 408 461L389 346Q305 392 228 392Q176
392 176 360Q176 344 192 334T259 310Q359 283 397 251T435 151Z" />
<glyph unicode="t" glyph-name="t" horiz-adv-x="363" d="M344 3Q310 -7 257 -7Q172 -7 126 30T79 156V367H14V490H79V636L229 659V490H322L341 367H229V180Q229 122 289 122Q307 122 325 127L344 3Z" />
<glyph unicode="u" glyph-name="u" horiz-adv-x="537" d="M485 0H352L341 67Q262 -10 188 -10Q120 -10 85 29T49 141V490H200V183Q200 123 251 123Q290 123 334 167V490H485V0Z" />
<glyph unicode="v" glyph-name="v" horiz-adv-x="507" d="M499 490L328 -2H177L10 478L172 497L263 187L352 490H499Z" />
<glyph unicode="w" glyph-name="w" horiz-adv-x="725" d="M715 490L578 0H434L362 280L291 0H146L12 478L168 497L235 204L304 490H440L510 205L575 490H715Z" />
<glyph unicode="x" glyph-name="x" horiz-adv-x="496" d="M481 12L324 -7L240 144L159 0H15L164 242L22 478L179 497L255 358L330 490H473L331 260L481 12Z" />
<glyph unicode="y" glyph-name="y" horiz-adv-x="510" d="M502 490L328 -10Q295 -105 247 -143T117 -182Q88 -182 60 -176L41 -55Q67 -63 101 -63Q159 -63 181 -16L187 -1L9 478L171 497L266 188L356 490H502Z" />
<glyph unicode="z" glyph-name="z" horiz-adv-x="467" d="M442 0H29V114L243 372H56L38 490H430V375L216 118H423L442 0Z" />
<glyph unicode="{" glyph-name="braceleft" horiz-adv-x="506" d="M469 -104H315Q239 -104 199 -70T159 27Q159 51 165 94T172 159Q172 207 145 227T65 247H40L25 340H66Q118 340 145 360T172 427Q172 449 166 492T159 559Q159 621 199 655T315 690H465V598H376Q308
598 308 540Q308 521 314 483T321 421Q321 319 207 294V292Q321 267 321 165Q321 142 315 104T308 46Q308 -11 376 -11H454L469 -104Z" />
<glyph unicode="|" glyph-name="bar" horiz-adv-x="300" d="M214 -166L87 -186V702L214 722V-166Z" />
<glyph unicode="}" glyph-name="braceright" horiz-adv-x="506" d="M480 247H439Q386 247 359 227T332 159Q332 137 339 94T346 27Q346 -35 307 -69T190 -104H40V-11H130Q198 -11 198 45Q198 64 191 103T184 165Q184 267 298 292V294Q184 319 184 421Q184 444
191 483T198 541Q198 598 130 598H50L36 690H190Q267 690 306 656T346 559Q346 536 339 493T332 427Q332 380 359 360T440 340H465L480 247Z" />
<glyph unicode="~" glyph-name="asciitilde" horiz-adv-x="409" d="M372 354Q362 279 339 247T276 215Q252 215 205 235Q155 256 140 256Q128 256 121 247T108 212L37 227Q46 303 69 335T133 367Q156 367 203 347Q251 326 269 326Q289 326 301 371L372 354Z" />
</font>
</defs>
</svg>
